<mxfile host="app.diagrams.net" modified="2020-11-09T14:48:01.509Z" agent="5.0 (Windows NT 10.0; WOW64) AppleWebKit/537.36 (KHTML, like Gecko) Chrome/70.0.3538.25 Safari/537.36 Core/1.70.3776.400 QQBrowser/10.6.4212.400" etag="Re29sJad-XF0wDEpB5Zv" version="13.9.2" type="github" pages="2">
  <diagram name="Page-1" id="42789a77-a242-8287-6e28-9cd8cfd52e62">
    <mxGraphModel dx="1468" dy="734" grid="0" gridSize="14" guides="1" tooltips="1" connect="1" arrows="1" fold="1" page="1" pageScale="1" pageWidth="1100" pageHeight="850" background="#ffffff" math="0" shadow="0">
      <root>
        <mxCell id="0" />
        <mxCell id="1" parent="0" />
        <mxCell id="1ea317790d2ca983-1" value="Starting&amp;nbsp;&lt;div&gt;node&lt;/div&gt;" style="ellipse;whiteSpace=wrap;html=1;rounded=0;shadow=1;comic=0;labelBackgroundColor=none;strokeWidth=1;fontFamily=Verdana;fontSize=12;align=center;fillColor=#f8cecc;strokeColor=#b85450;" parent="1" vertex="1">
          <mxGeometry x="406" width="70" height="60" as="geometry" />
        </mxCell>
        <mxCell id="1ea317790d2ca983-9" value="&lt;h1 style=&quot;font-size: 22px;&quot;&gt;A&lt;/h1&gt;" style="ellipse;whiteSpace=wrap;html=1;rounded=0;shadow=1;comic=0;labelBackgroundColor=none;strokeWidth=1;fontFamily=Verdana;fontSize=22;align=center;" parent="1" vertex="1">
          <mxGeometry x="330" y="85" width="50" height="50" as="geometry" />
        </mxCell>
        <mxCell id="krWJiwMu3hfHBBJ1nNsa-13" value="" style="endArrow=none;html=1;entryX=0;entryY=1;entryDx=0;entryDy=0;exitX=1;exitY=0;exitDx=0;exitDy=0;" edge="1" parent="1" source="krWJiwMu3hfHBBJ1nNsa-51" target="1ea317790d2ca983-9">
          <mxGeometry width="50" height="50" relative="1" as="geometry">
            <mxPoint x="224" y="196" as="sourcePoint" />
            <mxPoint x="360" y="260" as="targetPoint" />
            <Array as="points" />
          </mxGeometry>
        </mxCell>
        <mxCell id="krWJiwMu3hfHBBJ1nNsa-15" value="B" style="ellipse;whiteSpace=wrap;html=1;rounded=0;shadow=1;comic=0;labelBackgroundColor=none;strokeWidth=1;fontFamily=Helvetica;fontSize=22;align=center;fontStyle=3" vertex="1" parent="1">
          <mxGeometry x="500" y="91" width="50" height="50" as="geometry" />
        </mxCell>
        <mxCell id="krWJiwMu3hfHBBJ1nNsa-16" value="" style="endArrow=none;html=1;entryX=0;entryY=1;entryDx=0;entryDy=0;exitX=0.5;exitY=0;exitDx=0;exitDy=0;" edge="1" parent="1" source="krWJiwMu3hfHBBJ1nNsa-52" target="krWJiwMu3hfHBBJ1nNsa-51">
          <mxGeometry width="50" height="50" relative="1" as="geometry">
            <mxPoint x="114.67999999999995" y="305.32" as="sourcePoint" />
            <mxPoint x="182.00233047033623" y="237.9976695296636" as="targetPoint" />
            <Array as="points" />
          </mxGeometry>
        </mxCell>
        <mxCell id="krWJiwMu3hfHBBJ1nNsa-17" value="" style="endArrow=none;html=1;entryX=0;entryY=1;entryDx=0;entryDy=0;exitX=0.71;exitY=-0.025;exitDx=0;exitDy=0;exitPerimeter=0;" edge="1" parent="1" source="krWJiwMu3hfHBBJ1nNsa-62" target="krWJiwMu3hfHBBJ1nNsa-15">
          <mxGeometry width="50" height="50" relative="1" as="geometry">
            <mxPoint x="454" y="220" as="sourcePoint" />
            <mxPoint x="515.3223304703363" y="136.6776695296636" as="targetPoint" />
            <Array as="points" />
          </mxGeometry>
        </mxCell>
        <mxCell id="krWJiwMu3hfHBBJ1nNsa-18" value="" style="endArrow=none;html=1;entryX=0;entryY=1;entryDx=0;entryDy=0;exitX=0.5;exitY=0;exitDx=0;exitDy=0;" edge="1" parent="1" source="krWJiwMu3hfHBBJ1nNsa-53">
          <mxGeometry width="50" height="50" relative="1" as="geometry">
            <mxPoint x="280" y="319.32" as="sourcePoint" />
            <mxPoint x="347.3223304703363" y="251.9976695296636" as="targetPoint" />
            <Array as="points" />
          </mxGeometry>
        </mxCell>
        <mxCell id="krWJiwMu3hfHBBJ1nNsa-19" value="" style="endArrow=none;html=1;entryX=0;entryY=1;entryDx=0;entryDy=0;exitX=1;exitY=0;exitDx=0;exitDy=0;" edge="1" parent="1" source="1ea317790d2ca983-9" target="1ea317790d2ca983-1">
          <mxGeometry width="50" height="50" relative="1" as="geometry">
            <mxPoint x="340" y="240" as="sourcePoint" />
            <mxPoint x="407.3223304703363" y="172.6776695296636" as="targetPoint" />
            <Array as="points" />
          </mxGeometry>
        </mxCell>
        <mxCell id="krWJiwMu3hfHBBJ1nNsa-20" value="" style="endArrow=none;html=1;entryX=1;entryY=1;entryDx=0;entryDy=0;exitX=0;exitY=0;exitDx=0;exitDy=0;" edge="1" parent="1" source="krWJiwMu3hfHBBJ1nNsa-15" target="1ea317790d2ca983-1">
          <mxGeometry width="50" height="50" relative="1" as="geometry">
            <mxPoint x="350" y="250" as="sourcePoint" />
            <mxPoint x="417.3223304703363" y="182.6776695296636" as="targetPoint" />
            <Array as="points" />
          </mxGeometry>
        </mxCell>
        <mxCell id="krWJiwMu3hfHBBJ1nNsa-24" value="" style="endArrow=none;html=1;entryX=1;entryY=1;entryDx=0;entryDy=0;exitX=0.5;exitY=0;exitDx=0;exitDy=0;" edge="1" parent="1" source="krWJiwMu3hfHBBJ1nNsa-55" target="krWJiwMu3hfHBBJ1nNsa-58">
          <mxGeometry width="50" height="50" relative="1" as="geometry">
            <mxPoint x="556.6800000000001" y="305.32" as="sourcePoint" />
            <mxPoint x="624.0023304703363" y="237.9976695296636" as="targetPoint" />
            <Array as="points" />
          </mxGeometry>
        </mxCell>
        <mxCell id="krWJiwMu3hfHBBJ1nNsa-25" value="" style="endArrow=none;html=1;exitX=0;exitY=0;exitDx=0;exitDy=0;" edge="1" parent="1" source="krWJiwMu3hfHBBJ1nNsa-56" target="krWJiwMu3hfHBBJ1nNsa-58">
          <mxGeometry width="50" height="50" relative="1" as="geometry">
            <mxPoint x="540" y="327.32" as="sourcePoint" />
            <mxPoint x="607.3223304703363" y="259.9976695296636" as="targetPoint" />
            <Array as="points" />
          </mxGeometry>
        </mxCell>
        <mxCell id="krWJiwMu3hfHBBJ1nNsa-26" value="" style="endArrow=none;html=1;entryX=1;entryY=1;entryDx=0;entryDy=0;exitX=0.5;exitY=0;exitDx=0;exitDy=0;" edge="1" parent="1" source="krWJiwMu3hfHBBJ1nNsa-58" target="krWJiwMu3hfHBBJ1nNsa-15">
          <mxGeometry width="50" height="50" relative="1" as="geometry">
            <mxPoint x="602" y="179.32" as="sourcePoint" />
            <mxPoint x="669.3223304703363" y="111.9976695296636" as="targetPoint" />
            <Array as="points" />
          </mxGeometry>
        </mxCell>
        <mxCell id="krWJiwMu3hfHBBJ1nNsa-29" value="" style="endArrow=none;html=1;entryX=0.5;entryY=1;entryDx=0;entryDy=0;exitX=0.5;exitY=0;exitDx=0;exitDy=0;" edge="1" parent="1" source="krWJiwMu3hfHBBJ1nNsa-60" target="1ea317790d2ca983-9">
          <mxGeometry width="50" height="50" relative="1" as="geometry">
            <mxPoint x="364" y="224" as="sourcePoint" />
            <mxPoint x="417.3223304703363" y="139.9976695296636" as="targetPoint" />
            <Array as="points" />
          </mxGeometry>
        </mxCell>
        <mxCell id="krWJiwMu3hfHBBJ1nNsa-30" value="" style="endArrow=none;html=1;entryX=0.5;entryY=1;entryDx=0;entryDy=0;exitX=0.334;exitY=-0.098;exitDx=0;exitDy=0;exitPerimeter=0;" edge="1" parent="1" source="krWJiwMu3hfHBBJ1nNsa-57" target="krWJiwMu3hfHBBJ1nNsa-51">
          <mxGeometry width="50" height="50" relative="1" as="geometry">
            <mxPoint x="154" y="319.32" as="sourcePoint" />
            <mxPoint x="221.32233047033628" y="251.9976695296636" as="targetPoint" />
            <Array as="points" />
          </mxGeometry>
        </mxCell>
        <mxCell id="krWJiwMu3hfHBBJ1nNsa-31" value="" style="endArrow=none;html=1;entryX=0;entryY=1;entryDx=0;entryDy=0;exitX=0;exitY=0;exitDx=0;exitDy=0;" edge="1" parent="1" source="krWJiwMu3hfHBBJ1nNsa-59" target="krWJiwMu3hfHBBJ1nNsa-58">
          <mxGeometry width="50" height="50" relative="1" as="geometry">
            <mxPoint x="515.3399999999999" y="319.32" as="sourcePoint" />
            <mxPoint x="582.6623304703362" y="251.9976695296636" as="targetPoint" />
            <Array as="points" />
          </mxGeometry>
        </mxCell>
        <mxCell id="krWJiwMu3hfHBBJ1nNsa-33" value="" style="endArrow=none;html=1;entryX=0;entryY=1;entryDx=0;entryDy=0;exitX=0.5;exitY=0;exitDx=0;exitDy=0;" edge="1" parent="1" source="krWJiwMu3hfHBBJ1nNsa-54">
          <mxGeometry width="50" height="50" relative="1" as="geometry">
            <mxPoint x="429" y="364" as="sourcePoint" />
            <mxPoint x="456.0023304703363" y="259.9976695296636" as="targetPoint" />
            <Array as="points" />
          </mxGeometry>
        </mxCell>
        <mxCell id="krWJiwMu3hfHBBJ1nNsa-51" value="C" style="ellipse;whiteSpace=wrap;html=1;rounded=0;shadow=1;comic=0;labelBackgroundColor=none;strokeWidth=1;fontFamily=Verdana;fontSize=22;align=center;fontStyle=1" vertex="1" parent="1">
          <mxGeometry x="182" y="202" width="50" height="50" as="geometry" />
        </mxCell>
        <mxCell id="krWJiwMu3hfHBBJ1nNsa-52" value="G" style="ellipse;whiteSpace=wrap;html=1;rounded=0;shadow=1;comic=0;labelBackgroundColor=none;strokeWidth=1;fontFamily=Verdana;fontSize=22;align=center;fontStyle=1" vertex="1" parent="1">
          <mxGeometry x="56" y="364" width="50" height="50" as="geometry" />
        </mxCell>
        <mxCell id="krWJiwMu3hfHBBJ1nNsa-53" value="I" style="ellipse;whiteSpace=wrap;html=1;rounded=0;shadow=1;comic=0;labelBackgroundColor=none;strokeWidth=1;fontFamily=Verdana;fontSize=22;align=center;fontStyle=1" vertex="1" parent="1">
          <mxGeometry x="280" y="364" width="50" height="50" as="geometry" />
        </mxCell>
        <mxCell id="krWJiwMu3hfHBBJ1nNsa-54" value="J" style="ellipse;whiteSpace=wrap;html=1;rounded=0;shadow=1;comic=0;labelBackgroundColor=none;strokeWidth=1;fontFamily=Verdana;fontSize=22;align=center;fontStyle=1" vertex="1" parent="1">
          <mxGeometry x="406" y="364" width="50" height="50" as="geometry" />
        </mxCell>
        <mxCell id="krWJiwMu3hfHBBJ1nNsa-55" value="M" style="ellipse;whiteSpace=wrap;html=1;rounded=0;shadow=1;comic=0;labelBackgroundColor=none;strokeWidth=1;fontFamily=Verdana;fontSize=22;align=center;fontStyle=1" vertex="1" parent="1">
          <mxGeometry x="728" y="364" width="50" height="50" as="geometry" />
        </mxCell>
        <mxCell id="krWJiwMu3hfHBBJ1nNsa-56" value="L" style="ellipse;whiteSpace=wrap;html=1;rounded=0;shadow=1;comic=0;labelBackgroundColor=none;strokeWidth=1;fontFamily=Verdana;fontSize=22;align=center;fontStyle=1" vertex="1" parent="1">
          <mxGeometry x="616" y="364" width="50" height="50" as="geometry" />
        </mxCell>
        <mxCell id="krWJiwMu3hfHBBJ1nNsa-57" value="H" style="ellipse;whiteSpace=wrap;html=1;rounded=0;shadow=1;comic=0;labelBackgroundColor=none;strokeWidth=1;fontFamily=Verdana;fontSize=22;align=center;fontStyle=1" vertex="1" parent="1">
          <mxGeometry x="196" y="364" width="50" height="50" as="geometry" />
        </mxCell>
        <mxCell id="krWJiwMu3hfHBBJ1nNsa-58" value="F" style="ellipse;whiteSpace=wrap;html=1;rounded=0;shadow=1;comic=0;labelBackgroundColor=none;strokeWidth=1;fontFamily=Verdana;fontSize=22;align=center;fontStyle=1" vertex="1" parent="1">
          <mxGeometry x="607" y="204" width="50" height="50" as="geometry" />
        </mxCell>
        <mxCell id="krWJiwMu3hfHBBJ1nNsa-59" value="K" style="ellipse;whiteSpace=wrap;html=1;rounded=0;shadow=1;comic=0;labelBackgroundColor=none;strokeWidth=1;fontFamily=Verdana;fontSize=22;align=center;fontStyle=1" vertex="1" parent="1">
          <mxGeometry x="524" y="364" width="50" height="50" as="geometry" />
        </mxCell>
        <mxCell id="krWJiwMu3hfHBBJ1nNsa-60" value="D" style="ellipse;whiteSpace=wrap;html=1;rounded=0;shadow=1;comic=0;labelBackgroundColor=none;strokeWidth=1;fontFamily=Verdana;fontSize=22;align=center;fontStyle=1" vertex="1" parent="1">
          <mxGeometry x="320" y="204" width="50" height="50" as="geometry" />
        </mxCell>
        <mxCell id="krWJiwMu3hfHBBJ1nNsa-62" value="E" style="ellipse;whiteSpace=wrap;html=1;rounded=0;shadow=1;comic=0;labelBackgroundColor=none;strokeWidth=1;fontFamily=Verdana;fontSize=22;align=center;fontStyle=1" vertex="1" parent="1">
          <mxGeometry x="426" y="208" width="50" height="50" as="geometry" />
        </mxCell>
      </root>
    </mxGraphModel>
  </diagram>
  <diagram name="Copy of Page-1" id="ZdV52kI8zV0Ti6ZQ4nZM">
    <mxGraphModel dx="1223" dy="612" grid="0" gridSize="14" guides="1" tooltips="1" connect="1" arrows="1" fold="1" page="1" pageScale="1" pageWidth="1100" pageHeight="850" background="#ffffff" math="0" shadow="0">
      <root>
        <mxCell id="ZGuXx-tPx98baLrkSSJO-0" />
        <mxCell id="ZGuXx-tPx98baLrkSSJO-1" parent="ZGuXx-tPx98baLrkSSJO-0" />
        <mxCell id="ZGuXx-tPx98baLrkSSJO-2" value="Starting&amp;nbsp;&lt;div&gt;node&lt;/div&gt;" style="ellipse;whiteSpace=wrap;html=1;rounded=0;shadow=1;comic=0;labelBackgroundColor=none;strokeWidth=1;fontFamily=Verdana;fontSize=12;align=center;fillColor=#f8cecc;strokeColor=#b85450;" vertex="1" parent="ZGuXx-tPx98baLrkSSJO-1">
          <mxGeometry x="406" width="70" height="60" as="geometry" />
        </mxCell>
        <mxCell id="ZGuXx-tPx98baLrkSSJO-3" value="&lt;h1 style=&quot;font-size: 22px;&quot;&gt;A&lt;/h1&gt;" style="ellipse;whiteSpace=wrap;html=1;rounded=0;shadow=1;comic=0;labelBackgroundColor=none;strokeWidth=1;fontFamily=Verdana;fontSize=22;align=center;" vertex="1" parent="ZGuXx-tPx98baLrkSSJO-1">
          <mxGeometry x="330" y="85" width="50" height="50" as="geometry" />
        </mxCell>
        <mxCell id="ZGuXx-tPx98baLrkSSJO-4" value="" style="endArrow=none;html=1;entryX=0;entryY=1;entryDx=0;entryDy=0;exitX=1;exitY=0;exitDx=0;exitDy=0;" edge="1" parent="ZGuXx-tPx98baLrkSSJO-1" source="ZGuXx-tPx98baLrkSSJO-22" target="ZGuXx-tPx98baLrkSSJO-3">
          <mxGeometry width="50" height="50" relative="1" as="geometry">
            <mxPoint x="224" y="196" as="sourcePoint" />
            <mxPoint x="360" y="260" as="targetPoint" />
            <Array as="points" />
          </mxGeometry>
        </mxCell>
        <mxCell id="ZGuXx-tPx98baLrkSSJO-5" value="B" style="ellipse;whiteSpace=wrap;html=1;rounded=0;shadow=1;comic=0;labelBackgroundColor=none;strokeWidth=1;fontFamily=Helvetica;fontSize=22;align=center;fontStyle=3" vertex="1" parent="ZGuXx-tPx98baLrkSSJO-1">
          <mxGeometry x="500" y="91" width="50" height="50" as="geometry" />
        </mxCell>
        <mxCell id="ZGuXx-tPx98baLrkSSJO-6" value="" style="endArrow=none;html=1;entryX=0;entryY=1;entryDx=0;entryDy=0;exitX=0.5;exitY=0;exitDx=0;exitDy=0;" edge="1" parent="ZGuXx-tPx98baLrkSSJO-1" source="ZGuXx-tPx98baLrkSSJO-23" target="ZGuXx-tPx98baLrkSSJO-22">
          <mxGeometry width="50" height="50" relative="1" as="geometry">
            <mxPoint x="114.67999999999995" y="305.32" as="sourcePoint" />
            <mxPoint x="182.00233047033623" y="237.9976695296636" as="targetPoint" />
            <Array as="points" />
          </mxGeometry>
        </mxCell>
        <mxCell id="ZGuXx-tPx98baLrkSSJO-7" value="" style="endArrow=none;html=1;entryX=0;entryY=1;entryDx=0;entryDy=0;exitX=0.71;exitY=-0.025;exitDx=0;exitDy=0;exitPerimeter=0;" edge="1" parent="ZGuXx-tPx98baLrkSSJO-1" source="ZGuXx-tPx98baLrkSSJO-32" target="ZGuXx-tPx98baLrkSSJO-5">
          <mxGeometry width="50" height="50" relative="1" as="geometry">
            <mxPoint x="454" y="220" as="sourcePoint" />
            <mxPoint x="515.3223304703363" y="136.6776695296636" as="targetPoint" />
            <Array as="points" />
          </mxGeometry>
        </mxCell>
        <mxCell id="ZGuXx-tPx98baLrkSSJO-8" value="" style="endArrow=none;html=1;entryX=0;entryY=1;entryDx=0;entryDy=0;exitX=0.5;exitY=0;exitDx=0;exitDy=0;" edge="1" parent="ZGuXx-tPx98baLrkSSJO-1" source="ZGuXx-tPx98baLrkSSJO-24">
          <mxGeometry width="50" height="50" relative="1" as="geometry">
            <mxPoint x="280" y="319.32" as="sourcePoint" />
            <mxPoint x="347.3223304703363" y="251.9976695296636" as="targetPoint" />
            <Array as="points" />
          </mxGeometry>
        </mxCell>
        <mxCell id="ZGuXx-tPx98baLrkSSJO-9" value="" style="endArrow=none;html=1;entryX=0;entryY=1;entryDx=0;entryDy=0;exitX=1;exitY=0;exitDx=0;exitDy=0;" edge="1" parent="ZGuXx-tPx98baLrkSSJO-1" source="ZGuXx-tPx98baLrkSSJO-3" target="ZGuXx-tPx98baLrkSSJO-2">
          <mxGeometry width="50" height="50" relative="1" as="geometry">
            <mxPoint x="340" y="240" as="sourcePoint" />
            <mxPoint x="407.3223304703363" y="172.6776695296636" as="targetPoint" />
            <Array as="points" />
          </mxGeometry>
        </mxCell>
        <mxCell id="ZGuXx-tPx98baLrkSSJO-10" value="" style="endArrow=none;html=1;entryX=1;entryY=1;entryDx=0;entryDy=0;exitX=0;exitY=0;exitDx=0;exitDy=0;" edge="1" parent="ZGuXx-tPx98baLrkSSJO-1" source="ZGuXx-tPx98baLrkSSJO-5" target="ZGuXx-tPx98baLrkSSJO-2">
          <mxGeometry width="50" height="50" relative="1" as="geometry">
            <mxPoint x="350" y="250" as="sourcePoint" />
            <mxPoint x="417.3223304703363" y="182.6776695296636" as="targetPoint" />
            <Array as="points" />
          </mxGeometry>
        </mxCell>
        <mxCell id="ZGuXx-tPx98baLrkSSJO-11" value="" style="endArrow=none;html=1;entryX=0;entryY=1;entryDx=0;entryDy=0;" edge="1" parent="ZGuXx-tPx98baLrkSSJO-1">
          <mxGeometry width="50" height="50" relative="1" as="geometry">
            <mxPoint x="920" y="317.32" as="sourcePoint" />
            <mxPoint x="987.3223304703363" y="249.9976695296636" as="targetPoint" />
            <Array as="points" />
          </mxGeometry>
        </mxCell>
        <mxCell id="ZGuXx-tPx98baLrkSSJO-12" value="" style="endArrow=none;html=1;entryX=1;entryY=1;entryDx=0;entryDy=0;exitX=0.5;exitY=0;exitDx=0;exitDy=0;" edge="1" parent="ZGuXx-tPx98baLrkSSJO-1" source="ZGuXx-tPx98baLrkSSJO-26" target="ZGuXx-tPx98baLrkSSJO-29">
          <mxGeometry width="50" height="50" relative="1" as="geometry">
            <mxPoint x="556.6800000000001" y="305.32" as="sourcePoint" />
            <mxPoint x="624.0023304703363" y="237.9976695296636" as="targetPoint" />
            <Array as="points" />
          </mxGeometry>
        </mxCell>
        <mxCell id="ZGuXx-tPx98baLrkSSJO-13" value="" style="endArrow=none;html=1;exitX=0;exitY=0;exitDx=0;exitDy=0;" edge="1" parent="ZGuXx-tPx98baLrkSSJO-1" source="ZGuXx-tPx98baLrkSSJO-27" target="ZGuXx-tPx98baLrkSSJO-29">
          <mxGeometry width="50" height="50" relative="1" as="geometry">
            <mxPoint x="540" y="327.32" as="sourcePoint" />
            <mxPoint x="607.3223304703363" y="259.9976695296636" as="targetPoint" />
            <Array as="points" />
          </mxGeometry>
        </mxCell>
        <mxCell id="ZGuXx-tPx98baLrkSSJO-14" value="" style="endArrow=none;html=1;entryX=1;entryY=1;entryDx=0;entryDy=0;exitX=0.5;exitY=0;exitDx=0;exitDy=0;" edge="1" parent="ZGuXx-tPx98baLrkSSJO-1" source="ZGuXx-tPx98baLrkSSJO-29" target="ZGuXx-tPx98baLrkSSJO-5">
          <mxGeometry width="50" height="50" relative="1" as="geometry">
            <mxPoint x="602" y="179.32" as="sourcePoint" />
            <mxPoint x="669.3223304703363" y="111.9976695296636" as="targetPoint" />
            <Array as="points" />
          </mxGeometry>
        </mxCell>
        <mxCell id="ZGuXx-tPx98baLrkSSJO-15" value="" style="endArrow=none;html=1;entryX=0;entryY=1;entryDx=0;entryDy=0;" edge="1" parent="ZGuXx-tPx98baLrkSSJO-1">
          <mxGeometry width="50" height="50" relative="1" as="geometry">
            <mxPoint x="950" y="207.32" as="sourcePoint" />
            <mxPoint x="1017.3223304703363" y="139.9976695296636" as="targetPoint" />
            <Array as="points" />
          </mxGeometry>
        </mxCell>
        <mxCell id="ZGuXx-tPx98baLrkSSJO-16" value="" style="endArrow=none;html=1;entryX=0;entryY=1;entryDx=0;entryDy=0;" edge="1" parent="ZGuXx-tPx98baLrkSSJO-1">
          <mxGeometry width="50" height="50" relative="1" as="geometry">
            <mxPoint x="920" y="167.32" as="sourcePoint" />
            <mxPoint x="987.3223304703363" y="99.9976695296636" as="targetPoint" />
            <Array as="points" />
          </mxGeometry>
        </mxCell>
        <mxCell id="ZGuXx-tPx98baLrkSSJO-17" value="" style="endArrow=none;html=1;entryX=0.5;entryY=1;entryDx=0;entryDy=0;exitX=0.5;exitY=0;exitDx=0;exitDy=0;" edge="1" parent="ZGuXx-tPx98baLrkSSJO-1" source="ZGuXx-tPx98baLrkSSJO-31" target="ZGuXx-tPx98baLrkSSJO-3">
          <mxGeometry width="50" height="50" relative="1" as="geometry">
            <mxPoint x="364" y="224" as="sourcePoint" />
            <mxPoint x="417.3223304703363" y="139.9976695296636" as="targetPoint" />
            <Array as="points" />
          </mxGeometry>
        </mxCell>
        <mxCell id="ZGuXx-tPx98baLrkSSJO-18" value="" style="endArrow=none;html=1;entryX=0.5;entryY=1;entryDx=0;entryDy=0;exitX=0.334;exitY=-0.098;exitDx=0;exitDy=0;exitPerimeter=0;" edge="1" parent="ZGuXx-tPx98baLrkSSJO-1" source="ZGuXx-tPx98baLrkSSJO-28" target="ZGuXx-tPx98baLrkSSJO-22">
          <mxGeometry width="50" height="50" relative="1" as="geometry">
            <mxPoint x="154" y="319.32" as="sourcePoint" />
            <mxPoint x="221.32233047033628" y="251.9976695296636" as="targetPoint" />
            <Array as="points" />
          </mxGeometry>
        </mxCell>
        <mxCell id="ZGuXx-tPx98baLrkSSJO-19" value="" style="endArrow=none;html=1;entryX=0;entryY=1;entryDx=0;entryDy=0;exitX=0;exitY=0;exitDx=0;exitDy=0;" edge="1" parent="ZGuXx-tPx98baLrkSSJO-1" source="ZGuXx-tPx98baLrkSSJO-30" target="ZGuXx-tPx98baLrkSSJO-29">
          <mxGeometry width="50" height="50" relative="1" as="geometry">
            <mxPoint x="515.3399999999999" y="319.32" as="sourcePoint" />
            <mxPoint x="582.6623304703362" y="251.9976695296636" as="targetPoint" />
            <Array as="points" />
          </mxGeometry>
        </mxCell>
        <mxCell id="ZGuXx-tPx98baLrkSSJO-20" value="" style="endArrow=none;html=1;entryX=0;entryY=1;entryDx=0;entryDy=0;" edge="1" parent="ZGuXx-tPx98baLrkSSJO-1">
          <mxGeometry width="50" height="50" relative="1" as="geometry">
            <mxPoint x="920" y="297.32" as="sourcePoint" />
            <mxPoint x="987.3223304703363" y="229.9976695296636" as="targetPoint" />
            <Array as="points" />
          </mxGeometry>
        </mxCell>
        <mxCell id="ZGuXx-tPx98baLrkSSJO-21" value="" style="endArrow=none;html=1;entryX=0;entryY=1;entryDx=0;entryDy=0;exitX=0.5;exitY=0;exitDx=0;exitDy=0;" edge="1" parent="ZGuXx-tPx98baLrkSSJO-1" source="ZGuXx-tPx98baLrkSSJO-25">
          <mxGeometry width="50" height="50" relative="1" as="geometry">
            <mxPoint x="429" y="364" as="sourcePoint" />
            <mxPoint x="456.0023304703363" y="259.9976695296636" as="targetPoint" />
            <Array as="points" />
          </mxGeometry>
        </mxCell>
        <mxCell id="ZGuXx-tPx98baLrkSSJO-22" value="C" style="ellipse;whiteSpace=wrap;html=1;rounded=0;shadow=1;comic=0;labelBackgroundColor=none;strokeWidth=1;fontFamily=Verdana;fontSize=22;align=center;fontStyle=1" vertex="1" parent="ZGuXx-tPx98baLrkSSJO-1">
          <mxGeometry x="182" y="202" width="50" height="50" as="geometry" />
        </mxCell>
        <mxCell id="ZGuXx-tPx98baLrkSSJO-23" value="G" style="ellipse;whiteSpace=wrap;html=1;rounded=0;shadow=1;comic=0;labelBackgroundColor=none;strokeWidth=1;fontFamily=Verdana;fontSize=22;align=center;fontStyle=1" vertex="1" parent="ZGuXx-tPx98baLrkSSJO-1">
          <mxGeometry x="56" y="364" width="50" height="50" as="geometry" />
        </mxCell>
        <mxCell id="ZGuXx-tPx98baLrkSSJO-24" value="I" style="ellipse;whiteSpace=wrap;html=1;rounded=0;shadow=1;comic=0;labelBackgroundColor=none;strokeWidth=1;fontFamily=Verdana;fontSize=22;align=center;fontStyle=1" vertex="1" parent="ZGuXx-tPx98baLrkSSJO-1">
          <mxGeometry x="280" y="364" width="50" height="50" as="geometry" />
        </mxCell>
        <mxCell id="ZGuXx-tPx98baLrkSSJO-25" value="J" style="ellipse;whiteSpace=wrap;html=1;rounded=0;shadow=1;comic=0;labelBackgroundColor=none;strokeWidth=1;fontFamily=Verdana;fontSize=22;align=center;fontStyle=1" vertex="1" parent="ZGuXx-tPx98baLrkSSJO-1">
          <mxGeometry x="406" y="364" width="50" height="50" as="geometry" />
        </mxCell>
        <mxCell id="ZGuXx-tPx98baLrkSSJO-26" value="M" style="ellipse;whiteSpace=wrap;html=1;rounded=0;shadow=1;comic=0;labelBackgroundColor=none;strokeWidth=1;fontFamily=Verdana;fontSize=22;align=center;fontStyle=1" vertex="1" parent="ZGuXx-tPx98baLrkSSJO-1">
          <mxGeometry x="728" y="364" width="50" height="50" as="geometry" />
        </mxCell>
        <mxCell id="ZGuXx-tPx98baLrkSSJO-27" value="L" style="ellipse;whiteSpace=wrap;html=1;rounded=0;shadow=1;comic=0;labelBackgroundColor=none;strokeWidth=1;fontFamily=Verdana;fontSize=22;align=center;fontStyle=1" vertex="1" parent="ZGuXx-tPx98baLrkSSJO-1">
          <mxGeometry x="616" y="364" width="50" height="50" as="geometry" />
        </mxCell>
        <mxCell id="ZGuXx-tPx98baLrkSSJO-28" value="H" style="ellipse;whiteSpace=wrap;html=1;rounded=0;shadow=1;comic=0;labelBackgroundColor=none;strokeWidth=1;fontFamily=Verdana;fontSize=22;align=center;fontStyle=1" vertex="1" parent="ZGuXx-tPx98baLrkSSJO-1">
          <mxGeometry x="196" y="364" width="50" height="50" as="geometry" />
        </mxCell>
        <mxCell id="ZGuXx-tPx98baLrkSSJO-29" value="F" style="ellipse;whiteSpace=wrap;html=1;rounded=0;shadow=1;comic=0;labelBackgroundColor=none;strokeWidth=1;fontFamily=Verdana;fontSize=22;align=center;fontStyle=1" vertex="1" parent="ZGuXx-tPx98baLrkSSJO-1">
          <mxGeometry x="607" y="204" width="50" height="50" as="geometry" />
        </mxCell>
        <mxCell id="ZGuXx-tPx98baLrkSSJO-30" value="K" style="ellipse;whiteSpace=wrap;html=1;rounded=0;shadow=1;comic=0;labelBackgroundColor=none;strokeWidth=1;fontFamily=Verdana;fontSize=22;align=center;fontStyle=1" vertex="1" parent="ZGuXx-tPx98baLrkSSJO-1">
          <mxGeometry x="524" y="364" width="50" height="50" as="geometry" />
        </mxCell>
        <mxCell id="ZGuXx-tPx98baLrkSSJO-31" value="D" style="ellipse;whiteSpace=wrap;html=1;rounded=0;shadow=1;comic=0;labelBackgroundColor=none;strokeWidth=1;fontFamily=Verdana;fontSize=22;align=center;fontStyle=1" vertex="1" parent="ZGuXx-tPx98baLrkSSJO-1">
          <mxGeometry x="320" y="204" width="50" height="50" as="geometry" />
        </mxCell>
        <mxCell id="ZGuXx-tPx98baLrkSSJO-32" value="E" style="ellipse;whiteSpace=wrap;html=1;rounded=0;shadow=1;comic=0;labelBackgroundColor=none;strokeWidth=1;fontFamily=Verdana;fontSize=22;align=center;fontStyle=1" vertex="1" parent="ZGuXx-tPx98baLrkSSJO-1">
          <mxGeometry x="426" y="208" width="50" height="50" as="geometry" />
        </mxCell>
      </root>
    </mxGraphModel>
  </diagram>
</mxfile>
